<svg xmlns="http://www.w3.org/2000/svg" viewBox="0 0 960 340" role="img" aria-label="클라우드 엔지니어가 알아야 할 다섯 단계: 기본기, 구축, 운영, 자동화, 컨테이너">
<rect width="960" height="340" fill="#F2FAFF"/>
<rect x="1" y="1" width="958" height="338" fill="none" stroke="#D9E7F0"/>
<g font-family="Arial, sans-serif">
<text x="36" y="46" font-size="24" font-weight="700" fill="#123249">무엇을 알아야 할까</text>
<text x="36" y="74" font-size="15" fill="#35526A">순서대로 다섯 단계</text>
<rect x="36" y="210" width="170" height="100" fill="#FFFFFF" stroke="#79CDFF"/>
<text x="48" y="236" font-size="11" font-weight="700" fill="#1160D8">01</text>
<text x="70" y="236" font-size="14" font-weight="700" fill="#123249">기본기</text>
<text x="48" y="260" font-size="10.5" fill="#35526A">서버·네트워크 동작 이해</text>
<text x="48" y="284" font-size="11" fill="#1160D8">Linux · TCP/IP</text>
<text x="48" y="298" font-size="11" fill="#1160D8">DNS · HTTP</text>
<rect x="218" y="184" width="170" height="100" fill="#FFFFFF" stroke="#79CDFF"/>
<text x="230" y="210" font-size="11" font-weight="700" fill="#1160D8">02</text>
<text x="252" y="210" font-size="14" font-weight="700" fill="#123249">구축</text>
<text x="230" y="234" font-size="10.5" fill="#35526A">CSP 하나로 환경 만들기</text>
<text x="230" y="258" font-size="11" fill="#1160D8">AWS</text>
<rect x="400" y="158" width="170" height="100" fill="#FFFFFF" stroke="#79CDFF"/>
<text x="412" y="184" font-size="11" font-weight="700" fill="#1160D8">03</text>
<text x="434" y="184" font-size="14" font-weight="700" fill="#123249">운영</text>
<text x="412" y="208" font-size="10.5" fill="#35526A">지표와 로그로 범위 좁히기</text>
<text x="412" y="232" font-size="11" fill="#1160D8">CloudWatch · Prometheus</text>
<rect x="582" y="132" width="170" height="100" fill="#FFFFFF" stroke="#79CDFF"/>
<text x="594" y="158" font-size="11" font-weight="700" fill="#1160D8">04</text>
<text x="616" y="158" font-size="14" font-weight="700" fill="#123249">자동화</text>
<text x="594" y="182" font-size="10.5" fill="#35526A">반복 작업을 재현 가능하게</text>
<text x="594" y="206" font-size="11" fill="#1160D8">Git · 스크립트</text>
<text x="594" y="220" font-size="11" fill="#1160D8">Terraform</text>
<rect x="764" y="106" width="170" height="100" fill="#FFFFFF" stroke="#1160D8"/>
<text x="776" y="132" font-size="11" font-weight="700" fill="#1160D8">05</text>
<text x="798" y="132" font-size="14" font-weight="700" fill="#123249">컨테이너</text>
<text x="776" y="156" font-size="10.5" fill="#35526A">실행·배포 환경 이해하기</text>
<text x="776" y="180" font-size="11" fill="#1160D8">Docker · Kubernetes</text>
</g>
</svg>