<svg xmlns="http://www.w3.org/2000/svg" viewBox="0 0 1200 750" shape-rendering="crispEdges">
<rect width="1200" height="750" fill="#FFFFFF"/>
<rect width="204" height="750" fill="#1160D8"/>
<rect x="204" width="4" height="750" fill="#42B4FF"/>
<path d="M102 280V654" fill="none" stroke="#42B4FF" stroke-width="4"/>
<g fill="#42B4FF">
<rect x="96" y="280" width="12" height="12"/>
<rect x="96" y="402" width="12" height="12"/>
<rect x="96" y="524" width="12" height="12"/>
<rect x="96" y="648" width="12" height="12"/>
<rect x="1052" y="64" width="64" height="16"/>
<rect x="1116" y="64" width="16" height="48"/>
</g>
<g id="icon" fill="#FFFFFF">
<rect x="54" y="72" width="8" height="8"/>
<rect x="62" y="72" width="8" height="8"/>
<rect x="70" y="72" width="8" height="8"/>
<rect x="78" y="72" width="8" height="8"/>
<rect x="86" y="72" width="8" height="8"/>
<rect x="94" y="72" width="8" height="8"/>
<rect x="102" y="72" width="8" height="8"/>
<rect x="110" y="72" width="8" height="8"/>
<rect x="118" y="72" width="8" height="8"/>
<rect x="126" y="72" width="8" height="8"/>
<rect x="134" y="72" width="8" height="8"/>
<rect x="142" y="72" width="8" height="8"/>
<rect x="54" y="80" width="8" height="8"/>
<rect x="62" y="80" width="8" height="8"/>
<rect x="70" y="80" width="8" height="8"/>
<rect x="78" y="80" width="8" height="8"/>
<rect x="86" y="80" width="8" height="8"/>
<rect x="94" y="80" width="8" height="8"/>
<rect x="102" y="80" width="8" height="8"/>
<rect x="110" y="80" width="8" height="8"/>
<rect x="118" y="80" width="8" height="8"/>
<rect x="126" y="80" width="8" height="8"/>
<rect x="134" y="80" width="8" height="8"/>
<rect x="142" y="80" width="8" height="8"/>
<rect x="54" y="88" width="8" height="8"/>
<rect x="62" y="88" width="8" height="8"/>
<rect x="134" y="88" width="8" height="8"/>
<rect x="142" y="88" width="8" height="8"/>
<rect x="46" y="96" width="8" height="8"/>
<rect x="54" y="96" width="8" height="8"/>
<rect x="62" y="96" width="8" height="8"/>
<rect x="70" y="96" width="8" height="8"/>
<rect x="134" y="96" width="8" height="8"/>
<rect x="142" y="96" width="8" height="8"/>
<rect x="54" y="104" width="8" height="8"/>
<rect x="62" y="104" width="8" height="8"/>
<rect x="86" y="104" width="8" height="8"/>
<rect x="94" y="104" width="8" height="8"/>
<rect x="102" y="104" width="8" height="8"/>
<rect x="110" y="104" width="8" height="8"/>
<rect x="134" y="104" width="8" height="8"/>
<rect x="142" y="104" width="8" height="8"/>
<rect x="54" y="112" width="8" height="8"/>
<rect x="62" y="112" width="8" height="8"/>
<rect x="134" y="112" width="8" height="8"/>
<rect x="142" y="112" width="8" height="8"/>
<rect x="46" y="120" width="8" height="8"/>
<rect x="54" y="120" width="8" height="8"/>
<rect x="62" y="120" width="8" height="8"/>
<rect x="70" y="120" width="8" height="8"/>
<rect x="134" y="120" width="8" height="8"/>
<rect x="142" y="120" width="8" height="8"/>
<rect x="54" y="128" width="8" height="8"/>
<rect x="62" y="128" width="8" height="8"/>
<rect x="86" y="128" width="8" height="8"/>
<rect x="94" y="128" width="8" height="8"/>
<rect x="102" y="128" width="8" height="8"/>
<rect x="110" y="128" width="8" height="8"/>
<rect x="134" y="128" width="8" height="8"/>
<rect x="142" y="128" width="8" height="8"/>
<rect x="54" y="136" width="8" height="8"/>
<rect x="62" y="136" width="8" height="8"/>
<rect x="134" y="136" width="8" height="8"/>
<rect x="142" y="136" width="8" height="8"/>
<rect x="46" y="144" width="8" height="8"/>
<rect x="54" y="144" width="8" height="8"/>
<rect x="62" y="144" width="8" height="8"/>
<rect x="70" y="144" width="8" height="8"/>
<rect x="134" y="144" width="8" height="8"/>
<rect x="142" y="144" width="8" height="8"/>
<rect x="54" y="152" width="8" height="8"/>
<rect x="62" y="152" width="8" height="8"/>
<rect x="86" y="152" width="8" height="8"/>
<rect x="94" y="152" width="8" height="8"/>
<rect x="102" y="152" width="8" height="8"/>
<rect x="110" y="152" width="8" height="8"/>
<rect x="134" y="152" width="8" height="8"/>
<rect x="142" y="152" width="8" height="8"/>
<rect x="54" y="160" width="8" height="8"/>
<rect x="62" y="160" width="8" height="8"/>
<rect x="134" y="160" width="8" height="8"/>
<rect x="142" y="160" width="8" height="8"/>
<rect x="54" y="168" width="8" height="8"/>
<rect x="62" y="168" width="8" height="8"/>
<rect x="70" y="168" width="8" height="8"/>
<rect x="78" y="168" width="8" height="8"/>
<rect x="86" y="168" width="8" height="8"/>
<rect x="94" y="168" width="8" height="8"/>
<rect x="102" y="168" width="8" height="8"/>
<rect x="110" y="168" width="8" height="8"/>
<rect x="118" y="168" width="8" height="8"/>
<rect x="126" y="168" width="8" height="8"/>
<rect x="134" y="168" width="8" height="8"/>
<rect x="142" y="168" width="8" height="8"/>
<rect x="54" y="176" width="8" height="8"/>
<rect x="62" y="176" width="8" height="8"/>
<rect x="70" y="176" width="8" height="8"/>
<rect x="78" y="176" width="8" height="8"/>
<rect x="86" y="176" width="8" height="8"/>
<rect x="94" y="176" width="8" height="8"/>
<rect x="102" y="176" width="8" height="8"/>
<rect x="110" y="176" width="8" height="8"/>
<rect x="118" y="176" width="8" height="8"/>
<rect x="126" y="176" width="8" height="8"/>
<rect x="134" y="176" width="8" height="8"/>
<rect x="142" y="176" width="8" height="8"/>
</g>
<text x="268" y="106" font-family="Menlo, ui-monospace, monospace" font-size="28" fill="#1160D8" letter-spacing="4">ASBG UOS</text>
<text x="260" y="252" font-family="Menlo, ui-monospace, monospace" font-size="128" font-weight="700" fill="#0B0F17" letter-spacing="-6">RECAP</text>
<path d="M268 395H1132M268 495H1132M268 595H1132" fill="none" stroke="#0B0F17" stroke-width="2" opacity="0.14"/>
<g fill="#1160D8">
<rect x="268" y="342" width="16" height="16"/>
<rect x="268" y="442" width="16" height="16"/>
<rect x="268" y="542" width="16" height="16"/>
</g>
<g id="keywords" font-family="Menlo, ui-monospace, monospace" font-weight="700" fill="#0B0F17">
<text x="320" y="360" font-size="64">ARCHITECTURE</text>
<text x="320" y="460" font-size="64">VALIDATION</text>
<text x="320" y="560" font-size="64">LEARNING</text>
</g>
<text x="268" y="678" font-family="Menlo, ui-monospace, monospace" font-size="26" fill="#1160D8" letter-spacing="3">COHORT 01 · SESSION 02</text>
</svg>
